<svg viewBox="0 0 30 30" fill="#ebe7dd" xmlns="http://www.w3.org/2000/svg" class="md:h-6 h-10 lg:group-hover:scale-125 origin-top-right ease-out duration-300 transition-all"><path d="M1.39616 25.7543C0.609278 26.5412 0.609278 27.817 1.39616 28.6038C2.18303 29.3907 3.45881 29.3907 4.24569 28.6038L1.39616 25.7543ZM29.015 2.99997C29.015 1.88716 28.1128 0.985048 27 0.985047L8.8657 0.985046C7.75289 0.985046 6.85077 1.88716 6.85077 2.99997C6.85077 4.11278 7.75289 5.0149 8.8657 5.0149H24.9851V21.1343C24.9851 22.2471 25.8872 23.1492 27 23.1492C28.1128 23.1492 29.015 22.2471 29.015 21.1343L29.015 2.99997ZM4.24569 28.6038L28.4248 4.42474L25.5753 1.5752L1.39616 25.7543L4.24569 28.6038Z" /></svg>