<svg viewBox="0 0 185 185" fill="none" xmlns="http://www.w3.org/2000/svg" class="h-64 text-primary"><g clip-path="url(#clip0_16_9898)"><path d="M102.322 105.654C106.894 99.4934 107.839 91.3226 104.795 84.2613C104.705 84.3 104.611 84.3263 104.523 84.3637C104.436 84.4007 104.344 84.4315 104.253 84.4673C103.739 84.6729 103.211 84.8439 102.675 84.9796L102.247 85.0753C101.716 85.1917 101.176 85.2677 100.635 85.3056C100.529 85.3142 100.429 85.3327 100.324 85.3376C99.6804 85.3693 99.0378 85.3487 98.3986 85.2784C98.2896 85.2661 98.186 85.2369 98.0791 85.2221C97.5615 85.1498 97.0505 85.0445 96.5473 84.908C96.3525 84.8533 96.1629 84.7913 95.9705 84.7275C95.5339 84.5791 95.1056 84.4089 94.6862 84.2153C94.509 84.131 94.3286 84.0574 94.1571 83.9662C92.9797 83.3733 91.917 82.5746 91.0179 81.6068C90.8769 81.4637 90.7548 81.31 90.6208 81.1611C90.3211 80.8138 90.039 80.452 89.7759 80.0771C89.6575 79.9032 89.5387 79.7346 89.4281 79.5553C89.1687 79.1298 88.9331 78.6891 88.7247 78.2369C88.6672 78.1091 88.5956 77.9898 88.5414 77.8612C88.3033 77.284 88.106 76.6883 87.9535 76.0819C87.9161 75.9215 87.8943 75.7653 87.8601 75.6054C87.7627 75.1404 87.6891 74.6714 87.6418 74.1982C87.6225 73.9885 87.6036 73.7875 87.6024 73.5675C87.5855 73.1116 87.5921 72.654 87.6225 72.1993C87.6361 72.0094 87.6349 71.8244 87.6616 71.6295C87.6694 71.5514 87.6645 71.4746 87.676 71.3985C77.4072 70.1976 67.7675 76.6225 64.8124 86.638C61.8565 96.6526 66.4371 107.367 75.6773 112.051C84.9182 116.737 96.1506 114.039 102.322 105.654Z" fill="currentColor"/><path d="M36.1274 117.072C37.0462 116.646 37.8449 115.992 38.4464 115.171C40.2932 112.676 40.0135 109.181 37.7915 107.019C35.5708 104.858 32.1035 104.71 29.7087 106.672C27.3149 108.635 26.7421 112.094 28.3747 114.74C30.0071 117.383 33.332 118.384 36.1274 117.072Z" fill="currentColor"/><path d="M126.753 124.008C143.797 100.818 139.02 68.0496 116.085 50.8174C93.147 33.5844 60.7375 38.415 43.6941 61.6046C35.7111 72.3646 32.1882 85.8462 33.8729 99.1884C34.5322 99.2081 35.1878 99.2813 35.8347 99.4083C35.9468 99.4326 36.0523 99.4728 36.1557 99.4881C36.8316 99.6422 37.4944 99.8535 38.1356 100.122C38.3322 100.204 38.5266 100.286 38.711 100.369C42.0513 101.901 44.5192 104.887 45.4191 108.481C46.319 112.075 45.5527 115.89 43.3364 118.842C42.8447 119.498 42.2906 120.101 41.6825 120.644C41.6394 120.703 41.5917 120.768 41.5271 120.812C44.9093 126.24 49.2609 130.982 54.3628 134.795C77.3065 151.994 109.69 147.168 126.753 124.008ZM108.37 60.28C108.237 60.139 108.125 59.9782 108.041 59.8023C107.926 59.6407 107.841 59.4594 107.787 59.267C107.715 59.059 107.664 58.8682 107.615 58.6775C107.576 58.2754 107.605 57.8705 107.702 57.4766C107.794 57.0865 107.961 56.7173 108.195 56.3913C108.927 55.3836 110.189 54.924 111.388 55.2278C112.587 55.5321 113.487 56.5389 113.661 57.7763C113.833 59.0076 113.254 60.2224 112.196 60.8539C111.851 61.0607 111.476 61.2062 111.084 61.2835C110.284 61.3822 109.477 61.1733 108.823 60.6968C108.661 60.5694 108.511 60.4309 108.37 60.28ZM63.2371 76.2878C69.4148 67.8321 79.825 63.6844 90.0489 65.6035C94.1629 60.5007 101.521 59.5729 106.748 63.5002C111.975 67.4271 113.219 74.8181 109.573 80.2715C115.693 92.4371 112.125 107.299 101.167 115.271C90.2117 123.245 75.1416 121.948 65.6737 112.218C56.2075 102.489 55.1723 87.2328 63.2371 76.2878Z" fill="currentColor"/><path d="M103.868 77.5849C104.145 77.3181 104.4 77.0266 104.631 76.7175C106.636 73.9893 106.074 70.1339 103.376 68.1067C100.677 66.0795 96.8644 66.6481 94.8594 69.3754C94.6268 69.6969 94.4216 70.039 94.2465 70.3958C92.9712 73.0602 93.7527 76.2644 96.1072 78.0244C98.4616 79.7835 101.722 79.5993 103.868 77.5849Z" fill="currentColor"/><path d="M62.9674 14.7438C65.5899 11.1806 65.3309 6.23499 62.3528 2.97157C59.3731 -0.292787 54.5179 -0.9493 50.7944 1.40868C47.0735 3.76636 45.538 8.47025 47.1434 12.6041C47.5972 13.808 48.3043 14.899 49.2145 15.8019C49.5208 16.1052 49.8476 16.3884 50.1926 16.6473C54.2395 19.6881 59.9602 18.8358 62.9674 14.7438Z" fill="currentColor"/><path d="M153.627 144.195C163.08 131.376 168.805 116.142 170.157 100.212C169.306 100.077 168.465 99.8836 167.643 99.6291C167.418 99.5617 167.199 99.4741 166.977 99.3989C166.306 99.1678 165.649 98.8973 165.009 98.5898C164.767 98.4735 164.529 98.3641 164.296 98.2375C163.475 97.8116 162.688 97.3195 161.941 96.7678C157.601 93.564 154.894 88.5772 154.548 83.1546C154.204 77.7333 156.258 72.4374 160.155 68.6979C160.376 68.48 160.587 68.3053 160.807 68.1096C161.356 67.6249 161.93 67.1735 162.529 66.7554C162.77 66.591 163.004 66.4208 163.251 66.2658C164.08 65.7371 164.95 65.2766 165.852 64.8881C152.3 24.8722 112.018 0.72714 70.7909 7.90557L70.7892 7.98096C70.8538 8.79505 70.8521 9.61369 70.7851 10.4281C70.7707 10.6159 70.7489 10.8072 70.728 10.9939C70.6449 11.7569 70.506 12.5133 70.3144 13.255C70.2951 13.317 70.2914 13.3798 70.2712 13.4418C70.0435 14.2308 69.7507 14.9993 69.4021 15.7407C69.317 15.922 69.2282 16.1006 69.1386 16.2783C66.9293 20.6915 62.7462 23.7506 57.9112 24.4926C53.0744 25.2336 48.1847 23.5643 44.7815 20.0119C44.6023 19.8324 44.4481 19.6287 44.2812 19.4377C43.9239 19.0399 43.5901 18.6225 43.2772 18.1891C43.209 18.0908 43.1194 18.0053 43.0515 17.907C32.7735 23.7944 23.8374 31.8036 16.8233 41.4121C-11.2488 79.6072 -3.38136 133.579 34.3955 161.961C72.173 190.344 125.555 182.39 153.627 144.195ZM26.3046 121.378C20.9081 117.324 19.7841 109.613 23.7942 104.157C24.9042 102.656 26.342 101.436 27.9968 100.59C24.387 73.0499 40.4717 46.7516 66.4536 37.7133C92.4367 28.674 121.12 39.3986 135.036 63.3539C148.95 87.3093 144.242 117.861 123.779 136.401C103.316 154.942 72.7642 156.335 50.734 139.732C44.8769 135.323 39.9122 129.816 36.1122 123.511C32.693 124.266 29.1148 123.49 26.3046 121.378Z" fill="currentColor"/><path d="M170.309 69.9045C164.696 71.1033 160.672 76.1012 160.651 81.902C160.63 87.7019 164.616 92.7302 170.221 93.9718C175.824 95.2125 181.524 92.3294 183.903 87.0524C186.282 81.775 184.695 75.5335 180.092 72.0715C177.283 69.9785 173.725 69.1904 170.309 69.9045Z" fill="currentColor"/><path d="M19.4659 114.789C19.5617 114.396 19.5918 113.99 19.5522 113.588C19.2905 111.909 17.7481 110.75 16.0835 110.982C15.6912 111.06 15.3153 111.206 14.9714 111.412C14.6188 111.601 14.3153 111.874 14.0861 112.203C13.3427 113.202 13.2713 114.556 13.9038 115.631C14.5383 116.704 15.7517 117.283 16.9746 117.095C17.369 117.024 17.7461 116.879 18.0867 116.666C18.7727 116.248 19.2682 115.574 19.4659 114.789Z" fill="currentColor"/><path d="M129.651 131.776L118.013 143.456C116.41 145.064 116.41 147.672 118.013 149.28L150.705 182.088C152.308 183.696 154.906 183.696 156.509 182.088L168.147 170.409C169.75 168.8 169.75 166.193 168.147 164.584L135.455 131.776C133.852 130.168 131.254 130.168 129.651 131.776Z" fill="currentColor"/><path d="M115.111 58.1508C115.111 55.8803 113.271 54.0397 111 54.0397C108.73 54.0397 106.889 55.8803 106.889 58.1508V58.2424C106.889 60.5129 108.73 62.3535 111 62.3535C113.271 62.3535 115.111 60.5129 115.111 58.2424V58.1508Z" fill="currentColor"/></g><defs><clipPath id="clip0_16_9898"><rect width="185" height="185" fill="white"/></clipPath></defs></svg>